PathFileType	4	(X/Y/Z)	C:/Users/beibeiliu/ov580/test_trc/User3\sequence.43_training_dense_right.trc
DataRate	CameraRate	NumFrames	NumMarkers	Units	OrigDataRate	OrigDataStartFrame	OrigNumFrames
120	120	8	19	mm	120	91	121
Frame#	Time	ThumbCMC			ThumbMCP			ThumbIP			ThumbTip			IndexMCP			IndexPIP			IndexTip			MiddleMCP			MiddlePIP			MiddleTip			RingMCP			RingPIP			RingTip			PinkyMCP			PinkyPIP			PinkyTip			BackHand1			BackHand2			BackHand3	
		X0	Y0	Z0	X1	Y1	Z1	X2	Y2	Z2	X3	Y3	Z3	X4	Y4	Z4	X5	Y5	Z5	X6	Y6	Z6	X7	Y7	Z7	X8	Y8	Z8	X9	Y9	Z9	X10	Y10	Z10	X11	Y11	Z11	X12	Y12	Z12	X13	Y13	Z13	X14	Y14	Z14	X15	Y15	Z15	X16	Y16	Z16	X17	Y17	Z17	X18	Y18	Z18	
90	0.75	217.202	35.7356	31.0625	214.751	45.1748	-1.26013	209.607	41.8519	-32.4904	199.102	35.1787	-52.0983	220.187	10.0998	-45.36	194.027	12.1301	-61.5847	169.371	25.0736	-43.9284	206.508	-10.8264	-41.1506	175.004	2.10848	-49.8195	159.147	12.2926	-16.6898	193.71	-24.1356	-30.227	163.811	-10.0979	-26.1539	167.034	0.778346	4.84161	186.733	-35.8554	-16.2646	161.219	-23.0748	-12.9714	165.545	-10.832	11.5484	227.905	-26.7742	14.5995	227.297	-21.5796	50.3516	239.165	6.40767	25.5914	
91	0.758333	211.985	30.612	30.4937	203.939	43.7257	-1.21911	193.697	43.1889	-25.0624	184.666	40.4353	-48.5807	215.644	5.08182	-43.1769	187.234	12.5793	-60.9774	165.209	21.4898	-40.4571	202.236	-11.6917	-41.7328	168.303	-1.00047	-46.3167	157.762	8.74731	-11.4184	190.943	-24.4526	-31.0652	160.079	-15.5231	-23.1636	164.857	-1.86704	4.15715	183.816	-41.3422	-15.1026	160.431	-23.9571	-10.0053	165.768	-13.5216	14.3439	227.665	-29.6766	14.345	227.234	-26.4605	49.0032	235.436	5.34356	28.3702	
92	0.766667	212.68	29.5168	28.5557	203.169	37.1075	2.14229	196.163	44.965	-25.5547	187.852	39.8636	-46.8331	213.362	6.1211	-43.2633	183.572	12.6205	-59.2112	162.868	19.566	-35.7208	200.699	-13.1092	-41.5657	168.176	-0.656894	-45.1793	155.902	3.48105	-10.9961	189.622	-25.5238	-29.8516	160.986	-18.3509	-26.3315	165.968	-5.14359	9.42975	179.785	-41.2492	-17.0373	160.193	-26.5101	-12.3479	167.239	-12.8581	16.4104	226.058	-33.1107	16.3166	225.982	-30.5066	50.6543	233.3	1.57545	27.9741	
93	0.775	213.453	30.644	30.3928	205.071	41.7388	2.97177	201.147	42.9869	-28.9679	192.929	45.2157	-49.1047	213.172	7.2746	-41.97	185.196	15.0694	-58.5581	161.974	19.2706	-32.4645	202.676	-9.63674	-39.7861	165.691	-3.30721	-42.7113	157.4	6.74868	-6.76445	189.263	-25.3102	-29.1948	162.404	-17.1352	-25.3642	163	-2.73703	3.88997	182.657	-39.6556	-14.7095	159.192	-26.6381	-10.0871	167.875	-13.583	17.1151	226.22	-33.1174	15.984	226.893	-23.5071	51.6022	236.578	2.91893	25.2922	
94	0.783333	211.166	31.3511	34.1682	204.821	41.5135	4.68997	200.954	40.7738	-29.3336	192.354	31.5087	-51.0271	212.51	5.47743	-42.2308	183.83	11.8079	-59.4077	162.492	23.4545	-38.8175	201.771	-10.0119	-41.4225	167.305	-2.175	-44.6932	156.389	6.34609	-8.25184	190.219	-26.6183	-30.2783	162.349	-18.9901	-25.6877	161.365	-5.79494	5.31269	187.13	-37.7391	-13.4674	161.88	-24.9489	-12.6879	168.019	-11.187	16.9106	225.866	-30.3552	16.5802	227.257	-25.886	46.2319	237.236	6.96152	29.1098	
95	0.791667	212.821	38.1971	30.1947	207.899	48.5938	0.976234	200.465	39.8772	-32.5632	190.564	24.5054	-45.2491	216.469	9.82932	-42.4998	189.338	9.20312	-64.6647	163.523	20.4042	-50.1002	204.537	-11.5802	-41.3695	171.314	-3.17615	-52.5044	153.092	4.31049	-18.9873	194.87	-23.7655	-30.9882	164.406	-17.9002	-31.3991	159.812	-4.2143	-0.503158	188.507	-36.1761	-16.849	161.626	-25.6152	-14.0943	164.565	-13.5103	11.3576	229.741	-23.7623	15.6838	230.086	-20.7712	46.0231	235.337	7.61067	23.6892	
96	0.8	214.733	39.2212	28.6658	208.279	44.2456	-0.708808	198.655	39.991	-27.9196	186.567	22.7691	-44.1935	217.28	9.71396	-44.9221	195.382	10.0447	-68.1882	163.939	12.9725	-58.517	203.258	-8.70737	-47.7472	171.976	-7.79622	-55.8473	150.701	4.89306	-28.2156	195.1	-26.9762	-31.2927	162.511	-18.8728	-32.6014	158.963	-1.45116	-5.35162	189.071	-41.8889	-16.7567	164.043	-25.5235	-18.9424	158.98	-14.9823	6.51945	229.19	-22.2333	15.7656	231.4	-18.1944	43.4136	236.141	10.2545	26.0208	
97	0.808333	214.939	37.0648	28.9534	209.079	42.7636	1.91552	199.784	45.6332	-27.8964	187.154	26.6294	-44.6943	216.112	4.47545	-43.2803	191.963	6.59998	-65.5371	162.595	14.3281	-55.7647	203.086	-9.9067	-47.7685	172.987	-4.31658	-56.1743	149.727	5.46753	-24.7286	192.362	-27.5848	-34.5809	164.177	-23.1826	-34.7845	156.761	-7.61675	-5.18569	189.439	-40.0112	-17.5917	160.732	-30.6533	-18.2348	158.424	-15.7204	8.1223	227.676	-28.0664	13.6016	232.084	-23.2898	43.1029	236.552	7.46853	23.5482	
